<svg xmlns="http://www.w3.org/2000/svg" viewBox="0 0 64 64">
  <rect width="64" height="64" rx="14" fill="#161b22"/>
  <path d="M28.0,5.3 L36.0,5.3 L36.9,12.6 L42.3,14.8 L48.1,10.3 L53.7,15.9 L49.2,21.7 L51.4,27.1 L58.7,28.0 L58.7,36.0 L51.4,36.9 L49.2,42.3 L53.7,48.1 L48.1,53.7 L42.3,49.2 L36.9,51.4 L36.0,58.7 L28.0,58.7 L27.1,51.4 L21.7,49.2 L15.9,53.7 L10.3,48.1 L14.8,42.3 L12.6,36.9 L5.3,36.0 L5.3,28.0 L12.6,27.1 L14.8,21.7 L10.3,15.9 L15.9,10.3 L21.7,14.8 L27.1,12.6 Z" fill="#2f81f7"/>
  <circle cx="32" cy="32" r="9" fill="#161b22"/>
</svg>
